<svg width="28" height="28" viewBox="0 0 28 28" fill="none" xmlns="http://www.w3.org/2000/svg">
<path d="M5.75075 22.2496C7.38236 23.8812 9.46116 24.9924 11.7243 25.4425C13.9874 25.8927 16.3332 25.6617 18.465 24.7786C20.5968 23.8956 22.4189 22.4003 23.7008 20.4817C24.9828 18.5631 25.667 16.3075 25.667 14C25.667 11.6926 24.9828 9.43696 23.7008 7.51839C22.4189 5.59982 20.5968 4.10447 18.465 3.22145C16.3332 2.33842 13.9874 2.10738 11.7243 2.55755C9.46116 3.00771 7.38236 4.11885 5.75075 5.75046" stroke="#505050"/>
<path d="M17.5 14L17.8904 13.6876L18.1403 14L17.8904 14.3123L17.5 14ZM3.5 14.5C3.22386 14.5 3 14.2761 3 14C3 13.7238 3.22386 13.5 3.5 13.5V14V14.5ZM12.8333 8.16663L13.2238 7.85428L17.8904 13.6876L17.5 14L17.1096 14.3123L12.4429 8.47897L12.8333 8.16663ZM17.5 14L17.8904 14.3123L13.2238 20.1456L12.8333 19.8333L12.4429 19.5209L17.1096 13.6876L17.5 14ZM17.5 14V14.5H3.5V14V13.5H17.5V14Z" fill="#505050"/>
</svg>
