<svg width="28" height="28" viewBox="0 0 28 28" fill="none" xmlns="http://www.w3.org/2000/svg">
<rect x="0.5" y="0.5" width="27" height="27" rx="10.5" stroke="#333333"/>
<path d="M23 14C23 12.1195 22.411 10.2863 21.3156 8.7577C20.2203 7.22915 18.6736 6.08209 16.893 5.47763C15.1123 4.87316 13.187 4.84166 11.3874 5.38754C9.58792 5.93341 8.00459 7.02925 6.85982 8.52115C5.71505 10.013 5.06635 11.826 5.00482 13.7055C4.94329 15.585 5.47203 17.4366 6.51677 19.0001C7.56152 20.5637 9.06979 21.7608 10.8297 22.4232C12.5897 23.0856 14.513 23.18 16.3294 22.6933" stroke="#222222" stroke-linecap="round"/>
<circle cx="14" cy="14" r="4" stroke="#222222"/>
<path d="M18 11V15.5C18 16.8807 19.1193 18 20.5 18C21.8807 18 23 16.8807 23 15.5V14" stroke="#222222" stroke-linecap="round"/>
</svg>
