<svg width="28" height="28" viewBox="0 0 28 28" fill="none" xmlns="http://www.w3.org/2000/svg">
<rect x="0.5" y="0.5" width="27" height="27" rx="10.5" stroke="#333333"/>
<path d="M15.6468 12.3535C16.3548 13.0619 16.8037 14.0794 17.0817 15.0928C17.3398 16.0337 17.4375 16.9281 17.4754 17.4738C16.9297 17.436 16.0345 17.3396 15.0927 17.0813C14.0791 16.8033 13.0612 16.3548 12.353 15.6466C11.6449 14.9384 11.1961 13.9207 10.9181 12.9072C10.6596 11.9652 10.5621 11.0696 10.5243 10.5241C11.0699 10.5618 11.9649 10.6597 12.9066 10.9179C13.9203 11.1959 14.9385 11.6451 15.6468 12.3535Z" stroke="#222222"/>
<circle cx="14" cy="14" r="8.5" stroke="#222222"/>
</svg>
