<svg width="28" height="28" viewBox="0 0 28 28" fill="none" xmlns="http://www.w3.org/2000/svg">
<rect x="0.5" y="0.5" width="27" height="27" rx="10.5" stroke="#333333"/>
<path d="M19.7071 15.7071L22.3552 18.3552C22.7113 18.7113 22.7113 19.2887 22.3552 19.6448C20.43 21.57 17.3821 21.7866 15.204 20.153L13.6286 18.9714C11.885 17.6638 10.3362 16.115 9.02857 14.3714L7.84701 12.796C6.21341 10.6179 6.43001 7.56999 8.35523 5.64477C8.71133 5.28867 9.28867 5.28867 9.64477 5.64477L12.2929 8.29289C12.6834 8.68342 12.6834 9.31658 12.2929 9.70711L11.2717 10.7283C11.1095 10.8905 11.0692 11.1385 11.1719 11.3437C12.3585 13.7171 14.2829 15.6415 16.6563 16.8281C16.8615 16.9308 17.1095 16.8905 17.2717 16.7283L18.2929 15.7071C18.6834 15.3166 19.3166 15.3166 19.7071 15.7071Z" stroke="#222222"/>
</svg>
