<svg width="28" height="28" viewBox="0 0 28 28" fill="none" xmlns="http://www.w3.org/2000/svg">
<rect x="0.5" y="0.5" width="27" height="27" rx="10.5" stroke="#333333"/>
<path d="M11 8C11 8.39397 11.0776 8.78407 11.2284 9.14805C11.3791 9.51203 11.6001 9.84274 11.8787 10.1213C12.1573 10.3999 12.488 10.6209 12.852 10.7716C13.2159 10.9224 13.606 11 14 11C14.394 11 14.7841 10.9224 15.1481 10.7716C15.512 10.6209 15.8427 10.3999 16.1213 10.1213C16.3999 9.84274 16.6209 9.51203 16.7716 9.14805C16.9224 8.78407 17 8.39396 17 8C17 7.60603 16.9224 7.21593 16.7716 6.85195C16.6209 6.48797 16.3999 6.15725 16.1213 5.87868C15.8427 5.6001 15.512 5.37912 15.148 5.22836C14.7841 5.0776 14.394 5 14 5C13.606 5 13.2159 5.0776 12.8519 5.22836C12.488 5.37913 12.1573 5.6001 11.8787 5.87868C11.6001 6.15726 11.3791 6.48797 11.2284 6.85195C11.0776 7.21593 11 7.60604 11 8L11 8Z" stroke="#222222"/>
<path d="M6.43806 15.9015C6.09687 16.0985 5.79783 16.3607 5.558 16.6733C5.31817 16.9858 5.14225 17.3426 5.04028 17.7231C4.93831 18.1037 4.9123 18.5006 4.96372 18.8912C5.01515 19.2818 5.143 19.6584 5.33998 19.9996C5.53696 20.3408 5.79922 20.6398 6.11177 20.8796C6.42433 21.1195 6.78106 21.2954 7.1616 21.3974C7.54214 21.4993 7.93904 21.5253 8.32964 21.4739C8.72023 21.4225 9.09687 21.2946 9.43806 21.0977C9.77924 20.9007 10.0783 20.6384 10.3181 20.3259C10.5579 20.0133 10.7339 19.6566 10.8358 19.276C10.9378 18.8955 10.9638 18.4986 10.9124 18.108C10.861 17.7174 10.7331 17.3408 10.5361 16.9996C10.3391 16.6584 10.0769 16.3594 9.76434 16.1195C9.45179 15.8797 9.09505 15.7038 8.71451 15.6018C8.33397 15.4998 7.93707 15.4738 7.54648 15.5252C7.15588 15.5767 6.77924 15.7045 6.43806 15.9015L6.43806 15.9015Z" stroke="#222222"/>
<path d="M21.5619 15.9015C21.9031 16.0985 22.2022 16.3607 22.442 16.6733C22.6818 16.9859 22.8578 17.3426 22.9597 17.7231C23.0617 18.1037 23.0877 18.5006 23.0363 18.8912C22.9849 19.2818 22.857 19.6584 22.66 19.9996C22.463 20.3408 22.2008 20.6398 21.8882 20.8796C21.5757 21.1195 21.2189 21.2954 20.8384 21.3974C20.4579 21.4993 20.061 21.5253 19.6704 21.4739C19.2798 21.4225 18.9031 21.2946 18.5619 21.0977C18.2208 20.9007 17.9217 20.6384 17.6819 20.3259C17.4421 20.0133 17.2661 19.6566 17.1642 19.276C17.0622 18.8955 17.0362 18.4986 17.0876 18.108C17.139 17.7174 17.2669 17.3408 17.4639 16.9996C17.6609 16.6584 17.9231 16.3594 18.2357 16.1195C18.5482 15.8797 18.9049 15.7038 19.2855 15.6018C19.666 15.4998 20.0629 15.4738 20.4535 15.5252C20.8441 15.5767 21.2208 15.7045 21.5619 15.9015L21.5619 15.9015Z" stroke="#222222"/>
<path d="M18.5625 21.0977C18.863 21.2711 19.1914 21.388 19.5322 21.4492C18.8516 22.0329 18.0838 22.5083 17.2529 22.8525C16.2217 23.2797 15.1162 23.5 14 23.5C12.8838 23.5 11.7783 23.2797 10.7471 22.8525C9.91595 22.5082 9.14761 22.0331 8.4668 21.4492C8.80795 21.388 9.13672 21.2713 9.4375 21.0977C9.47318 21.0771 9.50627 21.0523 9.54102 21.0303C10.0311 21.3923 10.5644 21.6944 11.1299 21.9287C12.0398 22.3056 13.0151 22.5 14 22.5C14.9849 22.5 15.9602 22.3056 16.8701 21.9287C17.4354 21.6946 17.9681 21.3921 18.458 21.0303C18.4929 21.0524 18.5266 21.0769 18.5625 21.0977ZM11.1816 6.98242C11.0638 7.3088 11 7.65229 11 8C11 8.04199 11.0041 8.0841 11.0059 8.12598C10.1451 8.50081 9.36073 9.03189 8.69629 9.69629C7.99995 10.3926 7.44819 11.2201 7.07129 12.1299C6.74158 12.9259 6.55114 13.7722 6.50879 14.6309L6.5 15C6.5 15.2824 6.51714 15.5642 6.54883 15.8438C6.51183 15.8631 6.47373 15.8805 6.4375 15.9014C6.13634 16.0752 5.87024 16.3021 5.64648 16.5674C5.54968 16.0518 5.5 15.527 5.5 15C5.50004 13.8839 5.72034 12.7782 6.14746 11.7471C6.57462 10.716 7.20009 9.77842 7.98926 8.98926C8.77846 8.2001 9.71597 7.5746 10.7471 7.14746C10.8904 7.08809 11.0356 7.03377 11.1816 6.98242ZM16.8174 6.98242C16.9637 7.03385 17.1093 7.08797 17.2529 7.14746C18.284 7.5746 19.2215 8.2001 20.0107 8.98926C20.7999 9.77842 21.4254 10.716 21.8525 11.7471C22.2797 12.7782 22.5 13.8839 22.5 15C22.5 15.5271 22.4494 16.0518 22.3525 16.5674C22.1289 16.3023 21.8635 16.0751 21.5625 15.9014C21.5261 15.8803 21.4874 15.8632 21.4502 15.8438C21.4819 15.5642 21.5 15.2825 21.5 15C21.5 14.0152 21.3056 13.0397 20.9287 12.1299C20.5518 11.2201 20.0001 10.3926 19.3037 9.69629C18.6391 9.03168 17.8543 8.50083 16.9932 8.12598C16.9949 8.08409 17 8.042 17 8C17 7.6522 16.9353 7.30888 16.8174 6.98242Z" fill="#222222"/>
</svg>
