<?xml version="1.0" encoding="iso-8859-1"?>
<!-- Uploaded to: SVG Repo, www.svgrepo.com, Generator: SVG Repo Mixer Tools -->
<!DOCTYPE svg PUBLIC "-//W3C//DTD SVG 1.1//EN" "http://www.w3.org/Graphics/SVG/1.1/DTD/svg11.dtd">
<svg fill="#000000" version="1.1" id="Capa_1" xmlns="http://www.w3.org/2000/svg" xmlns:xlink="http://www.w3.org/1999/xlink" 
	 width="800px" height="800px" viewBox="0 0 42.169 42.168"
	 xml:space="preserve">
<g>
	<g>
		<path d="M41.189,5.277L0.979,5.274c-0.627,0-1.06,0.085-0.967,0.189C0.059,5.515,0.114,5.578,0.18,5.651
			c0.21,0.261,0.564,0.591,1.045,0.994c0.496,0.376,1.118,0.814,1.885,1.231c0.766,0.411,1.654,0.837,2.657,1.205
			c1,0.372,2.1,0.744,3.287,1.025c1.182,0.309,2.44,0.568,3.754,0.773c1.312,0.183,2.672,0.392,4.062,0.468
			c1.388,0.106,2.801,0.147,4.215,0.17c1.413-0.025,2.826-0.064,4.215-0.17c1.392-0.079,2.749-0.285,4.062-0.468
			c1.312-0.205,2.572-0.466,3.752-0.773C34.3,9.826,35.4,9.452,36.4,9.082c1.004-0.367,1.893-0.794,2.658-1.204
			c0.767-0.417,1.389-0.855,1.885-1.23c0.49-0.409,0.841-0.737,1.047-0.993c0.064-0.073,0.119-0.136,0.167-0.188
			C42.248,5.362,41.814,5.277,41.189,5.277z"/>
		<path d="M38.576,35.478h-1.965c-0.627,0-0.754-0.021-0.285-0.043s0.824-0.55,0.793-1.177l-0.628-12.526
			c-0.031-0.626,0.136-1.261,0.366-1.428c0.148-0.108,0.289-0.212,0.414-0.311c0.396-0.344,0.674-0.622,0.836-0.835
			c0.052-0.061,0.096-0.113,0.133-0.157c0.072-0.087,0.055-0.108-0.041-0.046c-0.049,0.031-0.106,0.068-0.174,0.112
			c-0.215,0.163-0.58,0.326-0.996,0.549c-0.098,0.044-0.204,0.089-0.315,0.135c-0.175,0.072-0.343-0.38-0.374-1.006l-0.241-4.84
			c-0.031-0.626-0.271-1.122-0.535-1.109c-0.264,0.013-0.328-0.051-0.146-0.145c0.114-0.058,0.225-0.117,0.328-0.175
			c0.622-0.352,1.125-0.724,1.524-1.04c0.396-0.344,0.674-0.622,0.836-0.835c0.052-0.061,0.096-0.113,0.133-0.157
			c0.072-0.087,0.055-0.108-0.041-0.046c-0.049,0.031-0.106,0.068-0.174,0.111c-0.215,0.163-0.58,0.326-0.996,0.549
			c-0.446,0.201-0.996,0.413-1.633,0.628c-0.646,0.2-1.381,0.391-2.189,0.571c-0.812,0.167-1.696,0.325-2.639,0.459
			c-0.94,0.143-1.943,0.223-2.977,0.335c-2.07,0.16-4.291,0.276-6.511,0.256c-2.22,0.018-4.438-0.101-6.511-0.26
			c-1.031-0.112-2.034-0.195-2.975-0.336c-0.942-0.133-1.824-0.293-2.639-0.459c-0.809-0.18-1.543-0.372-2.188-0.57
			c-0.638-0.215-1.188-0.427-1.634-0.628c-0.426-0.228-0.785-0.389-0.996-0.548c-0.067-0.043-0.125-0.08-0.174-0.111
			c-0.096-0.062-0.113-0.041-0.041,0.046c0.037,0.044,0.081,0.096,0.133,0.157c0.167,0.218,0.448,0.497,0.836,0.836
			c0.398,0.317,0.901,0.688,1.523,1.041c0.104,0.058,0.215,0.117,0.328,0.175c0.183,0.094,0.118,0.158-0.145,0.145
			c-0.264-0.013-0.502,0.483-0.533,1.109l-0.242,4.835c-0.031,0.626-0.199,1.078-0.374,1.006c-0.111-0.045-0.217-0.09-0.315-0.135
			c-0.426-0.228-0.785-0.389-0.996-0.548c-0.067-0.043-0.125-0.08-0.174-0.111c-0.096-0.062-0.113-0.041-0.041,0.046
			c0.037,0.044,0.081,0.096,0.133,0.157c0.167,0.218,0.448,0.497,0.836,0.836c0.125,0.099,0.264,0.204,0.413,0.312
			c0.231,0.167,0.398,0.803,0.367,1.429L5.044,34.256c-0.03,0.627,0.324,1.152,0.793,1.178c0.47,0.023,0.343,0.043-0.285,0.043
			H3.244c-0.627,0-1.135,0.316-1.135,0.709s0.508,0.709,1.135,0.709h8.709c0.627,0,1.135-0.316,1.135-0.709
			s-0.508-0.709-1.135-0.709H9.525c-0.627,0-1.109-0.507-1.078-1.133L8.998,23.36c0.031-0.626,0.532-0.955,1.129-0.766
			c1.273,0.402,2.688,0.742,4.191,0.99c1.072,0.154,2.182,0.338,3.318,0.399c1.134,0.088,2.287,0.125,3.442,0.146
			c1.155-0.021,2.311-0.058,3.442-0.146c1.136-0.065,2.246-0.245,3.317-0.401c1.504-0.248,2.918-0.588,4.192-0.992
			c0.597-0.188,1.098,0.141,1.13,0.767l0.551,10.985c0.031,0.626-0.45,1.133-1.078,1.133h-2.771c-0.627,0-1.135,0.316-1.135,0.709
			s0.508,0.709,1.135,0.709h8.71c0.627,0,1.135-0.316,1.135-0.709C39.711,35.793,39.203,35.478,38.576,35.478z M31.925,21.057
			c-0.437,0.076-0.887,0.148-1.354,0.216c-0.94,0.144-1.943,0.224-2.975,0.335c-2.072,0.16-4.291,0.275-6.513,0.256
			c-2.22,0.018-4.438-0.101-6.511-0.26c-1.031-0.111-2.034-0.195-2.974-0.336c-0.47-0.066-0.92-0.139-1.357-0.216
			c-0.617-0.109-1.088-0.718-1.057-1.344l0.237-4.752c0.031-0.626,0.537-0.964,1.139-0.785c1.159,0.346,2.424,0.638,3.761,0.859
			c1.072,0.155,2.182,0.338,3.318,0.4c1.134,0.088,2.288,0.125,3.442,0.146c1.155-0.023,2.311-0.057,3.442-0.146
			c1.136-0.066,2.246-0.245,3.317-0.401c1.339-0.221,2.603-0.514,3.763-0.859c0.602-0.179,1.106,0.16,1.139,0.786l0.238,4.759
			C33.015,20.338,32.542,20.948,31.925,21.057z"/>
	</g>
</g>
</svg>