<svg width="139" height="138" viewBox="0 0 139 138" fill="none" xmlns="http://www.w3.org/2000/svg">
<path d="M138.135 68.482C138.135 30.6604 107.213 0 69.0676 0C30.9227 0 0 30.6604 0 68.482C0 106.304 30.9227 136.964 69.0676 136.964C107.213 136.964 138.135 106.304 138.135 68.482Z" fill="#333333"/>
<path d="M90.6988 27.9442H47.8343C35.9922 27.9442 26.3583 37.4964 26.3583 49.2381V88.1204C26.3583 99.8622 35.9922 109.414 47.8343 109.414H90.6988C102.541 109.414 112.175 99.8622 112.175 88.1204V49.2381C112.175 37.4964 102.541 27.9442 90.6988 27.9442ZM33.9344 49.2381C33.9344 41.6397 40.1709 35.456 47.8343 35.456H90.6988C98.3622 35.456 104.599 41.6397 104.599 49.2381V88.1204C104.599 95.7189 98.3622 101.903 90.6988 101.903H47.8343C40.1709 101.903 33.9344 95.7189 33.9344 88.1204V49.2381Z" fill="white"/>
<path d="M69.2666 88.4814C80.2788 88.4814 89.2429 79.5981 89.2429 68.6744C89.2429 57.7508 80.2837 48.8675 69.2666 48.8675C58.2496 48.8675 49.2903 57.7508 49.2903 68.6744C49.2903 79.5981 58.2496 88.4814 69.2666 88.4814ZM69.2666 56.3842C76.105 56.3842 81.6669 61.8989 81.6669 68.6793C81.6669 75.4596 76.105 80.9743 69.2666 80.9743C62.4283 80.9743 56.8664 75.4596 56.8664 68.6793C56.8664 61.8989 62.4283 56.3842 69.2666 56.3842Z" fill="white"/>
<path d="M91.092 52.0676C94.0574 52.0676 96.4743 49.676 96.4743 46.7309C96.4743 43.7859 94.0622 41.3942 91.092 41.3942C88.1217 41.3942 85.7097 43.7859 85.7097 46.7309C85.7097 49.676 88.1217 52.0676 91.092 52.0676Z" fill="white"/>
</svg>
