<svg width="139" height="138" viewBox="0 0 139 138" fill="none" xmlns="http://www.w3.org/2000/svg">
<path d="M69.4219 0L69.1064 0C30.94 0 0 30.6777 0 68.5205V68.8333C0 106.676 30.94 137.354 69.1064 137.354H69.4219C107.588 137.354 138.528 106.676 138.528 68.8333V68.5205C138.528 30.6777 107.588 0 69.4219 0Z" fill="#333333"/>
<path d="M26.237 66.3358C26.4312 66.2395 26.6254 66.1481 26.8147 66.0615C30.1052 64.5504 33.4395 63.1357 36.7689 61.7209C36.9484 61.7209 37.2493 61.514 37.4191 61.4466C37.6763 61.3359 37.9336 61.2301 38.1908 61.1194C38.6859 60.9076 39.1809 60.7007 39.6711 60.489C40.6612 60.0703 41.6464 59.6516 42.6364 59.233L48.5623 56.7162C52.5129 55.0416 56.4685 53.3621 60.4191 51.6875C64.3697 50.0129 68.3251 48.3334 72.2757 46.6588C76.2263 44.9841 80.1817 43.3047 84.1323 41.6301C88.0829 39.9554 92.0385 38.276 95.9891 36.6014C96.8675 36.226 97.8188 35.6678 98.7603 35.5042C99.5514 35.3646 100.323 35.0951 101.119 34.946C102.628 34.662 104.293 34.5466 105.739 35.1673C106.239 35.3839 106.7 35.687 107.084 36.0672C108.918 37.867 108.661 40.8216 108.273 43.3528C105.569 60.9942 102.866 78.6405 100.158 96.2819C99.7892 98.7025 99.2844 101.359 97.3576 102.889C95.7269 104.184 93.407 104.328 91.3929 103.779C89.3788 103.226 87.6025 102.066 85.8601 100.926C78.6336 96.1809 71.4021 91.436 64.1755 86.6912C62.4575 85.5652 60.5453 84.0927 60.5647 82.0475C60.5744 80.8156 61.3169 79.7184 62.074 78.7416C68.3542 70.6186 77.4154 65.0365 84.1566 57.2889C85.1079 56.1965 85.8553 54.2235 84.5498 53.5931C83.7732 53.2178 82.8802 53.7279 82.1716 54.2139C73.2609 60.3494 64.3551 66.4898 55.4444 72.6253C52.5373 74.6271 49.4894 76.6868 45.9853 77.1776C42.8501 77.6203 39.6954 76.7541 36.6621 75.8687C34.119 75.1276 31.5806 74.3673 29.052 73.5829C27.7076 73.169 26.3196 72.7215 25.281 71.7831C24.2423 70.8448 23.6455 69.2664 24.2715 68.0152C24.6647 67.2308 25.4267 66.7352 26.2275 66.3309L26.237 66.3358Z" fill="#FEFFFC"/>
</svg>
