<svg width="139" height="137" viewBox="0 0 139 137" fill="none" xmlns="http://www.w3.org/2000/svg">
<path d="M138.135 68.482C138.135 30.6604 107.213 0 69.0676 0C30.9227 0 0 30.6604 0 68.482C0 106.304 30.9227 136.964 69.0676 136.964C107.213 136.964 138.135 106.304 138.135 68.482Z" fill="#333333"/>
<path d="M112.558 54.2909C112.015 49.0889 110.845 43.3384 106.54 40.3164C103.206 37.9728 98.8234 37.8862 94.7321 37.891C86.0835 37.891 77.43 37.9055 68.7814 37.9103C60.4628 37.9199 52.1442 37.9247 43.8256 37.9343C40.3506 37.9343 36.9727 37.6696 33.7452 39.1614C30.974 40.4415 28.8045 42.8764 27.499 45.5857C25.6887 49.3536 25.3102 53.622 25.0918 57.7894C24.6889 65.3781 24.7326 72.9862 25.2131 80.5702C25.5674 86.1042 26.4652 92.2205 30.7798 95.7478C34.6043 98.8709 40.0011 99.0249 44.9612 99.0297C60.7054 99.0441 76.4545 99.0585 92.2035 99.0682C94.2225 99.073 96.3288 99.0345 98.3866 98.8131C102.434 98.38 106.293 97.2299 108.894 94.256C111.52 91.258 112.194 87.0859 112.592 83.1351C113.563 73.5492 113.553 63.8719 112.558 54.2909ZM59.6765 81.9176V55.0416L83.1473 68.4772L59.6765 81.9176Z" fill="white"/>
</svg>
